<svg xmlns="http://www.w3.org/2000/svg" version="1.1" xmlns:xlink="http://www.w3.org/1999/xlink" xmlns:svgjs="http://svgjs.dev/svgjs" viewBox="0 0 800 800" opacity="1"><defs><symbol id="bbburst-shape-1" viewBox="0 0 194 167"><path d="m97 0 96.129 166.5H.871L97 0Z"></path></symbol><symbol id="bbburst-shape-2" viewBox="0 0 126 115"><path d="m63 0 62.77 43.877-23.976 70.996H24.206L.23 43.877 63 0Z"></path></symbol><symbol id="bbburst-shape-3" viewBox="0 0 131 127"><path d="m66 0 66 63.5L66 127 0 63.5 66 0Z"></path></symbol><symbol id="bbburst-shape-4" viewBox="0 0 149 143"><path d="M71.647 2.781c.898-2.764 4.808-2.764 5.706 0l15.445 47.534a3 3 0 0 0 2.853 2.073h49.98c2.906 0 4.115 3.719 1.764 5.427L106.96 87.193a2.999 2.999 0 0 0-1.09 3.354l15.445 47.534c.898 2.764-2.266 5.062-4.617 3.354l-40.435-29.378a3 3 0 0 0-3.526 0l-40.435 29.378c-2.351 1.708-5.515-.59-4.617-3.354L43.13 90.547a3 3 0 0 0-1.09-3.354L1.605 57.815c-2.35-1.708-1.142-5.427 1.764-5.427h49.98a3 3 0 0 0 2.853-2.073L71.647 2.781Z"></path></symbol><symbol id="bbburst-shape-5" viewBox="0 0 145 145"><circle cx="72.5" cy="72.5" r="72.5"></circle></symbol><symbol id="bbburst-shape-6" viewBox="0 0 133 116"><path d="M59.7487 10.2513c-13.6683-13.66839-35.8291-13.66839-49.4974 0-13.66839 13.6683-13.66839 35.8291 0 49.4974l49.4974-49.4974ZM66.5 66.5 41.7513 91.2487 66.5 115.997l24.7487-24.7483L66.5 66.5Zm56.249-6.7513c13.668-13.6683 13.668-35.8291 0-49.4974-13.669-13.66839-35.8294-13.66839-49.4977 0l49.4977 49.4974Zm-112.4977 0 31.5 31.5 49.4974-49.4974-31.5-31.5-49.4974 49.4974Zm80.9974 31.5 31.5003-31.5-49.4977-49.4974-31.5 31.5 49.4974 49.4974Z"></path></symbol><symbol id="bbburst-shape-7" viewBox="0 0 139 124"><path fill-rule="evenodd" clip-rule="evenodd" d="M70.1641 15.0917C54.6093.764854 37.8293-2.10782 24.4032 2.82615 10.3804 7.97941.763366 21.4591 1.00047 37.0608c.1068 7.0273 2.86132 13.7317 7.0039 20.2001C12.1442 63.7249 17.853 70.2322 24.25 76.9024c3.8209 3.9842 7.8871 8.0312 12.0767 12.201h.0001c10.0335 9.9862 20.7748 20.6766 30.5497 32.8956 1.38 1.725 3.8972 2.005 5.6223.624.6706-.536 1.1228-1.244 1.3439-2.011 9.5768-11.748 20.0328-22.0735 29.8163-31.7351 4.19-4.1373 8.256-8.1528 12.078-12.1062 6.396-6.6176 12.106-13.0752 16.247-19.4911 4.144-6.4196 6.905-13.0811 7.012-20.0691.237-15.5124-9.399-28.8902-23.411-33.99923-13.32-4.85681-29.9542-2.08621-45.4209 11.88043Zm-3.7351 7.4919C52.1278 8.44857 37.6826 6.46918 27.1626 10.3352 16.2859 14.3323 8.8148 24.7824 8.99955 36.9392c.07575 4.9844 2.03755 10.2234 5.74165 16.0072 3.707 5.7881 8.9752 11.8418 15.2827 18.4187 3.5798 3.7328 7.4978 7.6329 11.6 11.7163 9.0476 9.0063 18.9911 18.9046 28.1786 29.8666 9.2999-11.068 19.4036-21.0473 28.5839-30.1144l.0007-.0006c4.1019-4.0508 8.0189-7.9196 11.5979-11.6222 6.307-6.5252 11.573-12.5298 15.278-18.2697 3.703-5.7362 5.658-10.924 5.734-15.8531.184-12.0276-7.267-22.3914-18.153-26.3608-10.71-3.90518-25.4722-1.80041-40.0023 12.867-1.5547 1.5694-4.0874 1.5813-5.6568.0265-.3146-.3116-.5666-.6625-.7559-1.0371Z"></path></symbol><symbol id="bbburst-shape-8" viewBox="0 0 87 168"><path d="m12 12 31.2546 18.0749c16.4102 9.4902 20.014 31.6325 7.4603 45.8369L36.3296 92.1884c-12.5684 14.2206-8.9394 36.3916 7.5068 45.8636L75 156" stroke-width="14" stroke-linecap="round" stroke-linejoin="round"></path></symbol><symbol id="bbburst-shape-9" viewBox="0 0 182 172"><path d="M13.5809 69.845 91 13.5967l77.419 56.2483-29.571 91.012H43.1524L13.5809 69.845Z" stroke-width="22"></path></symbol><symbol id="bbburst-shape-10" viewBox="0 0 145 145"><circle cx="72.5" cy="72.5" r="61.5" fill="none" stroke-width="22"></circle></symbol><symbol id="bbburst-shape-11" viewBox="0 0 194 167"><path d="M10.398 161 97 11l86.603 150H10.397Z" stroke-width="11"></path></symbol><symbol id="bbburst-shape-12" viewBox="0 0 170 151"><path d="M69.3728 54.2122 85 10.0031l15.627 44.2091c1.413 3.9958 5.19 6.6672 9.428 6.6673h49.312l-39.149 26.1447c-3.803 2.5401-5.399 7.3367-3.875 11.6488l15.179 42.94-40.9683-27.36c-3.3621-2.245-7.7453-2.245-11.1074 0l-40.9682 27.36 15.1785-42.94c1.5243-4.3121-.0712-9.1087-3.8746-11.6488L10.6333 60.8795h49.3112c4.2381-.0001 8.0159-2.6715 9.4283-6.6673Z" stroke-width="12"></path></symbol><symbol id="bbburst-shape-13" viewBox="0 0 159 159"><path stroke-width="22" d="M11 11h137v137H11z"></path></symbol><symbol id="bbburst-shape-14" viewBox="0 0 185 109"><path d="M168 16.5C168 58.1975 134.197 92 92.5 92 50.8025 92 17 58.1975 17 16.5" stroke-width="33" stroke-linecap="round"></path></symbol></defs><use xlink:href="#bbburst-shape-13" width="34.16991006805723" opacity="0.37292038742594613" transform="matrix(0.9807794401931187,-0.19511968043862885,0.19511968043862885,0.9807794401931187,56.56866319325695,-197.5133122125812)" fill="none" stroke="#1d5595"></use><use xlink:href="#bbburst-shape-13" width="7.387332099083819" opacity="0.946282946185768" transform="matrix(0.9040867637772464,0.42734894824111297,-0.42734894824111297,0.9040867637772464,197.14633215249484,391.9253896085848)" fill="none" stroke="#00a19d"></use><use xlink:href="#bbburst-shape-14" width="21.7913909295264" opacity="0.7076698752934608" transform="matrix(0.9332164551385501,0.35931469196045757,-0.35931469196045757,0.9332164551385501,370.5531336554768,251.69698157721433)" fill="none" stroke="#ff5c58"></use><use xlink:href="#bbburst-shape-10" width="10.188715912666629" opacity="0.8294282572684212" transform="matrix(0.9758035256728835,-0.21864921514693358,0.21864921514693358,0.9758035256728835,71.8173620946785,364.77865957416844)" fill="none" stroke="#ffbd9b"></use><use xlink:href="#bbburst-shape-13" width="33.70236838900804" opacity="0.5580873877372878" transform="matrix(0.9818332053394188,0.18974603261444692,-0.18974603261444692,0.9818332053394188,345.3127460430373,67.15091384155681)" fill="none" stroke="#00a19d"></use><use xlink:href="#bbburst-shape-4" width="22.161409826679144" opacity="0.5926564056291841" transform="matrix(0.9380397540953367,0.3465276608537336,-0.3465276608537336,0.9380397540953367,504.8010518487415,265.69592771391217)" fill="#ffbd9b"></use><use xlink:href="#bbburst-shape-4" width="11.123264301636544" opacity="0.8308654546803897" transform="matrix(0.7802243755303004,0.6254997392712107,-0.6254997392712107,0.7802243755303004,293.0332103820023,322.0181349877586)" fill="#1d5595"></use><use xlink:href="#bbburst-shape-10" width="11.083297472289322" opacity="0.3880800652442613" transform="matrix(0.9966616863637234,-0.08164240892219504,0.08164240892219504,0.9966616863637234,573.5916069381045,388.3204396634985)" fill="none" stroke="#ff5c58"></use><use xlink:href="#bbburst-shape-10" width="28.594742564088737" opacity="0.3931296535924048" transform="matrix(0.9784317221794476,0.20657048441866063,-0.20657048441866063,0.9784317221794476,668.476036757152,313.54680653935486)" fill="none" stroke="#ffc107"></use><use xlink:href="#bbburst-shape-11" width="10.541967496153777" opacity="0.8681170642685849" transform="matrix(0.7860800905269073,-0.6181246567458778,0.6181246567458778,0.7860800905269073,-139.72496105984553,418.6869472740419)" fill="none" stroke="#00a19d"></use><use xlink:href="#bbburst-shape-12" width="43.566222421658495" opacity="0.22283673366725543" transform="matrix(0.993832711509819,0.1108897719947197,-0.1108897719947197,0.993832711509819,652.2307461932996,-55.76138238361341)" fill="none" stroke="#1d5595"></use><use xlink:href="#bbburst-shape-9" width="14.311964960953503" opacity="0.7491505384306583" transform="matrix(0.9483033297180934,-0.3173653964211869,0.3173653964211869,0.9483033297180934,-75.87505393387026,178.77944698579267)" fill="none" stroke="#1d5595"></use><use xlink:href="#bbburst-shape-13" width="8.327949327977583" opacity="0.9065712620522278" transform="matrix(0.7974974845395486,-0.6033222705595183,0.6033222705595183,0.7974974845395486,-188.24534421020283,409.03180844216826)" fill="none" stroke="#28a745"></use><use xlink:href="#bbburst-shape-8" width="13.15698659716236" opacity="0.8339509238294041" transform="matrix(0.973623599353281,-0.22816022173543235,0.22816022173543235,0.973623599353281,36.83688457341353,314.6839434645807)" fill="none" stroke="#00a19d"></use><use xlink:href="#bbburst-shape-13" width="22.387543372252832" opacity="0.651366136236559" transform="matrix(0.7376492491535342,0.6751841120933069,-0.6751841120933069,0.7376492491535342,539.4489684450424,286.5132339466198)" fill="none" stroke="#1d5595"></use><use xlink:href="#bbburst-shape-1" width="37.25549240301672" opacity="0.26737971492705914" transform="matrix(0.8977103139260582,-0.44058619164787516,0.44058619164787516,0.8977103139260582,160.0407075269545,-192.81534602806258)" fill="#1d5595"></use><use xlink:href="#bbburst-shape-2" width="41.70955324944603" opacity="0.28976898694284936" transform="matrix(0.758800337673883,-0.6513233049308164,0.6513233049308164,0.758800337673883,-42.65747325687161,-160.6075130313293)" fill="#ffbd9b"></use><use xlink:href="#bbburst-shape-12" width="39.705634905068706" opacity="0.41320075335853523" transform="matrix(0.9770114826229713,-0.21318668537894972,0.21318668537894972,0.9770114826229713,397.01860670174824,109.01329311300299)" fill="none" stroke="#ffc107"></use><use xlink:href="#bbburst-shape-3" width="9.945099124940443" opacity="0.780635310013438" transform="matrix(0.8910422676353893,0.4539203424469797,-0.4539203424469797,0.8910422676353893,396.04115845528236,427.62675823000825)" fill="#1d5595"></use><use xlink:href="#bbburst-shape-6" width="37.60922631071817" opacity="0.17847513710547047" transform="matrix(0.9440517135894311,-0.32979745612854394,0.32979745612854394,0.9440517135894311,609.3862312585034,114.36067838895804)" fill="#00a19d"></use><use xlink:href="#bbburst-shape-7" width="14.002227005802066" opacity="0.756698534901443" transform="matrix(0.9812792326486662,-0.19259041402012939,0.19259041402012939,0.9812792326486662,9.242366892253315,184.0983622205042)" fill="#ffbd9b"></use><use xlink:href="#bbburst-shape-1" width="13.695586967069787" opacity="0.694986049811433" transform="matrix(0.9233548579168219,-0.3839476609661864,0.3839476609661864,0.9233548579168219,-137.6634012382522,129.10088603066777)" fill="#e77717"></use><use xlink:href="#bbburst-shape-8" width="11.561874854531984" opacity="0.6090062828885741" transform="matrix(0.949221432114102,-0.3146087615042739,0.3146087615042739,0.949221432114102,-42.68275623118467,41.31841033388241)" fill="none" stroke="#ff5c58"></use><use xlink:href="#bbburst-shape-6" width="8.78656567167251" opacity="0.9521911422892857" transform="matrix(0.8345132083251909,0.5509879355582992,-0.5509879355582992,0.8345132083251909,255.54269570130342,435.8604617457867)" fill="#ffbd9b"></use><use xlink:href="#bbburst-shape-4" width="8.389893808998801" opacity="0.8696432238653267" transform="matrix(0.8088440771465377,0.5880231788500907,-0.5880231788500907,0.8088440771465377,252.6859413972794,345.3271815799026)" fill="#1d5595"></use><use xlink:href="#bbburst-shape-5" width="27.313386016851908" opacity="0.5410359683453188" transform="matrix(0.7661311706419679,-0.6426842376865702,0.6426842376865702,0.7661311706419679,166.64155827227705,353.5381214341938)" fill="#00a19d"></use><use xlink:href="#bbburst-shape-4" width="6.135934236658274" opacity="0.9717299792250024" transform="matrix(0.7767497019054174,0.6298094160854101,-0.6298094160854101,0.7767497019054174,275.0311172884682,475.15521817910883)" fill="#1d5595"></use><use xlink:href="#bbburst-shape-13" width="10.392271579652501" opacity="0.8929052399027622" transform="matrix(0.9504655619972828,-0.3108298818601412,0.3108298818601412,0.9504655619972828,-30.956398477854123,378.9602811411382)" fill="none" stroke="#e77717"></use><use xlink:href="#bbburst-shape-4" width="17.918254455989143" opacity="0.5371327438863143" transform="matrix(0.7909359874400738,-0.611898899959949,0.611898899959949,0.7909359874400738,-232.7031997227744,26.64891379585771)" fill="#ff5c58"></use><use xlink:href="#bbburst-shape-2" width="10.809373378234241" opacity="0.891229740478896" transform="matrix(0.735397873758578,0.6776355711378812,-0.6776355711378812,0.735397873758578,349.2845805479967,430.9594972664328)" fill="#28a745"></use><use xlink:href="#bbburst-shape-6" width="40.62822057632194" opacity="0.22459410443742167" transform="matrix(0.9642773389782646,0.2648947216027474,-0.2648947216027474,0.9642773389782646,834.6491765967103,205.60668703880242)" fill="#ffc107"></use><use xlink:href="#bbburst-shape-5" width="26.726804508509648" opacity="0.49939358301977277" transform="matrix(0.7500226953522053,0.661412092765632,-0.661412092765632,0.7500226953522053,672.626908515945,215.81281630602513)" fill="#00a19d"></use><use xlink:href="#bbburst-shape-5" width="5.867967649763288" opacity="0.939979663397504" transform="matrix(0.9874133611188689,-0.15816084940318914,0.15816084940318914,0.9874133611188689,-8.861582824293514,387.6333047297041)" fill="#ffbd9b"></use><use xlink:href="#bbburst-shape-5" width="22.146616544308092" opacity="0.6895481233791121" transform="matrix(0.9246391281345959,-0.38084443375543015,0.38084443375543015,0.9246391281345959,17.36387417111584,181.37578212566757)" fill="#00a19d"></use><use xlink:href="#bbburst-shape-9" width="35.23966835238306" opacity="0.20264072583817383" transform="matrix(0.7734806404278349,0.6338199262277467,-0.6338199262277467,0.7734806404278349,942.974324758642,102.85334986256345)" fill="none" stroke="#00a19d"></use><use xlink:href="#bbburst-shape-3" width="23.68981550530877" opacity="0.4368255280566542" transform="matrix(0.8501977307082349,-0.5264635017725044,0.5264635017725044,0.8501977307082349,-123.28077994081382,-88.47440231991214)" fill="#ffbd9b"></use><use xlink:href="#bbburst-shape-13" width="24.698666558438095" opacity="0.592945956243693" transform="matrix(0.7295366751811772,0.6839416931037277,-0.6839416931037277,0.7295366751811772,441.18008048289596,132.99538818802074)" fill="none" stroke="#ffc107"></use><use xlink:href="#bbburst-shape-13" width="9.92954152364378" opacity="0.916270145486028" transform="matrix(0.7530454874193199,-0.6579684596372375,0.6579684596372375,0.7530454874193199,-194.54251422708325,459.96155915256986)" fill="none" stroke="#28a745"></use><use xlink:href="#bbburst-shape-7" width="10.59667547693598" opacity="0.8145339413846728" transform="matrix(0.9778641587869434,0.20924073924526163,-0.20924073924526163,0.9778641587869434,162.10300682301602,242.1908303258437)" fill="#e77717"></use><use xlink:href="#bbburst-shape-1" width="29.523792428830877" opacity="0.45126711830144517" transform="matrix(0.9999651961355513,0.008343052054750376,-0.008343052054750376,0.9999651961355513,154.38455667751091,-123.15354236709925)" fill="#ffc107"></use><use xlink:href="#bbburst-shape-6" width="13.39358785474088" opacity="0.8404072537447784" transform="matrix(0.8196058206871659,0.5729278302681038,-0.5729278302681038,0.8196058206871659,368.07621358771223,400.34863160952375)" fill="#ffbd9b"></use><use xlink:href="#bbburst-shape-14" width="9.122231248244521" opacity="0.9477190942086471" transform="matrix(0.9480781037860473,-0.3180375907364615,0.3180375907364615,0.9480781037860473,-123.41558521754827,370.58454745438337)" fill="none" stroke="#e77717"></use><use xlink:href="#bbburst-shape-6" width="12.384745552879341" opacity="0.580797954648655" transform="matrix(0.9814936955313889,-0.1914944532672876,0.1914944532672876,0.9814936955313889,-7.65886243423293,-3.8468197866270657)" fill="#ffc107"></use><use xlink:href="#bbburst-shape-8" width="30.183698687851987" opacity="0.40822780717433516" transform="matrix(0.9506039403381215,0.31040642489104053,-0.31040642489104053,0.9506039403381215,655.2861687476026,185.60303675323513)" fill="none" stroke="#e77717"></use><use xlink:href="#bbburst-shape-2" width="34.69046517208149" opacity="0.48612998405623664" transform="matrix(0.9591385777441032,0.2829367220475614,-0.2829367220475614,0.9591385777441032,561.7486830931672,193.19473965413846)" fill="#00a19d"></use><use xlink:href="#bbburst-shape-5" width="14.439567231463833" opacity="0.7881333722240357" transform="matrix(0.992546177622945,-0.12186913180162337,0.12186913180162337,0.992546177622945,79.34541110329091,240.7894594285424)" fill="#ffbd9b"></use><use xlink:href="#bbburst-shape-4" width="12.42375238980743" opacity="0.8569903946780304" transform="matrix(0.9895248166463352,0.14436286655867167,-0.14436286655867167,0.9895248166463352,193.72124038047264,387.4188081982215)" fill="#1d5595"></use><use xlink:href="#bbburst-shape-7" width="20.86489170435473" opacity="0.43193929281699095" transform="matrix(0.8105835875637446,0.5856229568351033,-0.5856229568351033,0.8105835875637446,792.8814047590906,437.3696131803064)" fill="#ffbd9b"></use><use xlink:href="#bbburst-shape-6" width="16.74523071349246" opacity="0.7969776174678174" transform="matrix(0.7687261691101208,0.6395780460000781,-0.6395780460000781,0.7687261691101208,441.30118909030375,420.89732578517044)" fill="#ffc107"></use><use xlink:href="#bbburst-shape-11" width="9.30940026824655" opacity="0.873987001521817" transform="matrix(0.9757920546877283,0.21870040239629507,-0.21870040239629507,0.9757920546877283,154.30618887746016,304.6750284467565)" fill="none" stroke="#ffbd9b"></use><use xlink:href="#bbburst-shape-5" width="17.070634386564425" opacity="0.7460086647744876" transform="matrix(0.9867322285330966,-0.16235611837596015,0.16235611837596015,0.9867322285330966,179.71661055514284,385.2091931405798)" fill="#ffbd9b"></use><use xlink:href="#bbburst-shape-5" width="34.58286096815298" opacity="0.3144106755586452" transform="matrix(0.8860986985917072,-0.46349659799623427,0.46349659799623427,0.8860986985917072,471.7014873704993,319.85408125505785)" fill="#ffbd9b"></use><use xlink:href="#bbburst-shape-2" width="10.951872092192357" opacity="0.8349312245595342" transform="matrix(0.8664807286655914,-0.4992105235781249,0.4992105235781249,0.8664807286655914,-111.71576798097668,319.5721158920481)" fill="#ffc107"></use><use xlink:href="#bbburst-shape-13" width="22.981735275242478" opacity="0.5685734458294858" transform="matrix(0.8868243103606962,-0.46210674367863913,0.46210674367863913,0.8868243103606962,228.52276133204995,368.5477463382824)" fill="none" stroke="#ffbd9b"></use><use xlink:href="#bbburst-shape-12" width="31.889440187799213" opacity="0.3696465663714995" transform="matrix(0.8350021052696228,0.5502467484640847,-0.5502467484640847,0.8350021052696228,449.7347785904909,-124.48938501924474)" fill="none" stroke="#00a19d"></use><use xlink:href="#bbburst-shape-6" width="11.384020873204566" opacity="0.7929882835590495" transform="matrix(0.8929327487963857,0.4501900777748557,-0.4501900777748557,0.8929327487963857,187.7540747099037,233.64648378174206)" fill="#1d5595"></use><use xlink:href="#bbburst-shape-13" width="25.67682343366182" opacity="0.6294195617117226" transform="matrix(0.7843720764337668,0.6202906139149464,-0.6202906139149464,0.7843720764337668,465.70413299624397,185.88087606941264)" fill="none" stroke="#00a19d"></use><use xlink:href="#bbburst-shape-3" width="48.22152481909455" opacity="0.05586743894098045" transform="matrix(0.9505647750455055,-0.3105263409804191,0.3105263409804191,0.9505647750455055,442.45927052885907,-309.950478342074)" fill="#ffc107"></use><use xlink:href="#bbburst-shape-7" width="15.696647515925498" opacity="0.7935748758854341" transform="matrix(0.9433529426336558,0.3317909366218772,-0.3317909366218772,0.9433529426336558,190.93494008727444,224.33173843534803)" fill="#00a19d"></use><use xlink:href="#bbburst-shape-10" width="16.67581916335607" opacity="0.7788897146898448" transform="matrix(0.8272115254630789,-0.5618906407309576,0.5618906407309576,0.8272115254630789,-121.43787045073557,282.117615886712)" fill="none" stroke="#1d5595"></use><use xlink:href="#bbburst-shape-8" width="23.03249098538188" opacity="0.6394403823908998" transform="matrix(0.9492040730797381,-0.3146611314554677,0.3146611314554677,0.9492040730797381,41.00992441393106,110.27285090777912)" fill="none" stroke="#e77717"></use><use xlink:href="#bbburst-shape-4" width="6.437272744705897" opacity="0.957007931631554" transform="matrix(0.8838358841202933,0.46779710339130937,-0.46779710339130937,0.8838358841202933,226.5915677782252,437.394310953875)" fill="#00a19d"></use><use xlink:href="#bbburst-shape-14" width="22.77152518784594" opacity="0.5822434239561591" transform="matrix(0.8380088000622854,-0.5456567153606456,0.5456567153606456,0.8380088000622854,112.03856560299243,228.05561891125768)" fill="none" stroke="#00a19d"></use><use xlink:href="#bbburst-shape-1" width="17.93092876763592" opacity="0.7542475417018746" transform="matrix(0.718885003724569,-0.6951290178232574,0.6951290178232574,0.718885003724569,-101.6468345482667,354.4813019135944)" fill="#1d5595"></use><use xlink:href="#bbburst-shape-1" width="7.6550182819145896" opacity="0.9099577377521993" transform="matrix(0.9974433931969964,0.07146101991758863,-0.07146101991758863,0.9974433931969964,58.3044314617196,317.1959353322942)" fill="#ffc107"></use><use xlink:href="#bbburst-shape-12" width="45.77434633875214" opacity="0.13776707603659688" transform="matrix(0.8010834194281699,0.5985527170745037,-0.5985527170745037,0.8010834194281699,658.6524702857737,-277.1829325129197)" fill="none" stroke="#ffbd9b"></use><use xlink:href="#bbburst-shape-11" width="14.387849478879481" opacity="0.6586482586873348" transform="matrix(0.9642181034000938,-0.2651102583370285,0.2651102583370285,0.9642181034000938,227.6838075809483,395.1776569243681)" fill="none" stroke="#ffbd9b"></use><use xlink:href="#bbburst-shape-4" width="16.917960180657147" opacity="0.5423496498677077" transform="matrix(0.7400892845082702,0.6725086251908124,-0.6725086251908124,0.7400892845082702,330.613370369039,45.698716747696096)" fill="#1d5595"></use><use xlink:href="#bbburst-shape-8" width="17.896203050230366" opacity="0.5379546567035333" transform="matrix(0.9575269485886437,0.2883437925923167,-0.2883437925923167,0.9575269485886437,276.9901444484593,-15.138136730685346)" fill="none" stroke="#ffc107"></use><use xlink:href="#bbburst-shape-10" width="24.539317670576565" opacity="0.4522620236930779" transform="matrix(0.9996526346249893,-0.026355456499889813,0.026355456499889813,0.9996526346249893,4.793750646238063,-146.57978034006402)" fill="none" stroke="#28a745"></use><use xlink:href="#bbburst-shape-14" width="44.992456070468855" opacity="0.37328210046462473" transform="matrix(0.9411934813186424,-0.33786806703696376,0.33786806703696376,0.9411934813186424,280.4379368028111,-18.302760450941037)" fill="none" stroke="#ffc107"></use><use xlink:href="#bbburst-shape-2" width="12.290416320693634" opacity="0.8584400116863139" transform="matrix(0.7855065465258604,-0.6188533472196917,0.6188533472196917,0.7855065465258604,-152.42120836034192,389.35279981188444)" fill="#ffc107"></use><use xlink:href="#bbburst-shape-13" width="34.16901245528578" opacity="0.44237740747383447" transform="matrix(0.9878774555800343,0.15523573286043837,-0.15523573286043837,0.9878774555800343,475.2648038804173,47.22963026005419)" fill="none" stroke="#ff5c58"></use><use xlink:href="#bbburst-shape-9" width="24.98840859207883" opacity="0.6066505144073988" transform="matrix(0.9043021595278066,-0.42689296582790565,0.42689296582790565,0.9043021595278066,102.1495308665746,171.5959725660917)" fill="none" stroke="#ff5c58"></use><use xlink:href="#bbburst-shape-5" width="17.82072959491464" opacity="0.6048087342771573" transform="matrix(0.9607580518276349,-0.2773877536020071,0.2773877536020071,0.9607580518276349,262.69229705233704,317.70391334338615)" fill="#ffc107"></use><use xlink:href="#bbburst-shape-4" width="38.61608970688641" opacity="0.31950826169008884" transform="matrix(0.9685915231098179,0.2486573171250008,-0.2486573171250008,0.9685915231098179,678.0322159618872,81.71956356729493)" fill="#00a19d"></use><use xlink:href="#bbburst-shape-1" width="22.981785362080593" opacity="0.4954928681990646" transform="matrix(0.7468956632345284,-0.664941251721875,0.664941251721875,0.7468956632345284,9.885490981991325,92.21532157686397)" fill="#ffbd9b"></use><use xlink:href="#bbburst-shape-3" width="10.729115793110752" opacity="0.7816443720449252" transform="matrix(0.9119541539395815,-0.41029211680501765,0.41029211680501765,0.9119541539395815,-127.2717994404058,223.11384152349422)" fill="#28a745"></use><use xlink:href="#bbburst-shape-8" width="17.923168379011788" opacity="0.6499541895866953" transform="matrix(0.999869680220833,-0.016143809187707314,0.016143809187707314,0.999869680220833,38.3933039336289,54.311824665057884)" fill="none" stroke="#ffbd9b"></use><use xlink:href="#bbburst-shape-12" width="20.603145005928422" opacity="0.6271636091204118" transform="matrix(0.9400219747498578,0.3411138915192075,-0.3411138915192075,0.9400219747498578,451.25411048337395,236.81199474277383)" fill="none" stroke="#ffbd9b"></use><use xlink:href="#bbburst-shape-12" width="27.06955284994922" opacity="0.5247148162110631" transform="matrix(0.8902407995777197,-0.45549019612635167,0.45549019612635167,0.8902407995777197,30.67838106187554,31.342198254787945)" fill="none" stroke="#ff5c58"></use><use xlink:href="#bbburst-shape-1" width="22.832129127505763" opacity="0.49638563771796895" transform="matrix(0.8376332185256851,0.5462330923903291,-0.5462330923903291,0.8376332185256851,312.41004370367915,-34.12970542735462)" fill="#1d5595"></use><use xlink:href="#bbburst-shape-10" width="13.009342167222798" opacity="0.8041622578370342" transform="matrix(0.9414817137282945,0.3370640632212721,-0.3370640632212721,0.9414817137282945,300.89899963582593,327.9384539905085)" fill="none" stroke="#28a745"></use><use xlink:href="#bbburst-shape-4" width="33.914120196370206" opacity="0.3948386501289942" transform="matrix(0.7465955440806075,-0.6652782076387154,0.6652782076387154,0.7465955440806075,304.031076449411,349.615556742095)" fill="#28a745"></use><use xlink:href="#bbburst-shape-2" width="8.749770525484772" opacity="0.846712925868135" transform="matrix(0.9742607418626404,-0.22542406008511487,0.22542406008511487,0.9742607418626404,-80.41608653974971,258.64115209209774)" fill="#00a19d"></use><use xlink:href="#bbburst-shape-13" width="11.004425410556472" opacity="0.7167970484636503" transform="matrix(0.8418679956329286,-0.5396834979216943,0.5396834979216943,0.8418679956329286,-170.31123388647723,187.50295441397418)" fill="none" stroke="#ffbd9b"></use><use xlink:href="#bbburst-shape-11" width="28.688281768724423" opacity="0.3029811486765307" transform="matrix(0.7511458964560269,0.6601362300595777,-0.6601362300595777,0.7511458964560269,377.25575649053707,-196.15393561005163)" fill="none" stroke="#ffc107"></use><use xlink:href="#bbburst-shape-7" width="10.84358195451103" opacity="0.8309104956285133" transform="matrix(0.9836333898704104,-0.18018144835705277,0.18018144835705277,0.9836333898704104,91.13513751816974,394.4060457777568)" fill="#28a745"></use><use xlink:href="#bbburst-shape-10" width="20.920924265563464" opacity="0.7440482874072366" transform="matrix(0.8301693909958988,-0.5575112395759375,0.5575112395759375,0.8301693909958988,-79.516025381079,267.96115874874994)" fill="none" stroke="#e77717"></use><use xlink:href="#bbburst-shape-2" width="19.398894213259066" opacity="0.6485184563552912" transform="matrix(0.9510942233759851,-0.3089009198122138,0.3089009198122138,0.9510942233759851,211.28165534462275,350.74039056950403)" fill="#ffbd9b"></use><use xlink:href="#bbburst-shape-10" width="17.774625168722714" opacity="0.6804360330327007" transform="matrix(0.9391172237059232,-0.34359691520570873,0.34359691520570873,0.9391172237059232,-2.5882073227307956,141.72194582329337)" fill="none" stroke="#00a19d"></use><use xlink:href="#bbburst-shape-8" width="49.24836142745817" opacity="0.11676996253224303" transform="matrix(0.9201946740124449,0.39146106054003665,-0.39146106054003665,0.9201946740124449,782.7733720300782,-176.95977707096787)" fill="none" stroke="#ffbd9b"></use><use xlink:href="#bbburst-shape-7" width="5.119868338671677" opacity="0.9764793498268759" transform="matrix(0.7380173308698275,0.6747817568190293,-0.6747817568190293,0.7380173308698275,274.845767513573,480.5463202904368)" fill="#28a745"></use><use xlink:href="#bbburst-shape-4" width="25.003926065053953" opacity="0.48031719093578207" transform="matrix(0.7815460498210486,-0.6238475551039012,0.6238475551039012,0.7815460498210486,238.6200215731655,346.36951776693354)" fill="#e77717"></use><use xlink:href="#bbburst-shape-9" width="55.65264350861492" opacity="0.2541443607684378" transform="matrix(0.7120038465968717,0.7021755638237908,-0.7021755638237908,0.7120038465968717,794.6563133575471,-26.00409523909792)" fill="none" stroke="#ffc107"></use><use xlink:href="#bbburst-shape-9" width="30.709892992698364" opacity="0.4213780461982465" transform="matrix(0.9950076380009218,-0.09979879919030374,0.09979879919030374,0.9950076380009218,292.66425594918303,-59.04118430881823)" fill="none" stroke="#e77717"></use><use xlink:href="#bbburst-shape-3" width="49.46610075261331" opacity="0.190430431576337" transform="matrix(0.9856798165246232,-0.16862769433276675,0.16862769433276675,0.9856798165246232,409.16013327521,-225.85658180520966)" fill="#ffbd9b"></use><use xlink:href="#bbburst-shape-10" width="13.324876112522924" opacity="0.666280276212807" transform="matrix(0.9735504637386012,-0.22847208703549463,0.22847208703549463,0.9735504637386012,-80.74869480153394,78.82202367697579)" fill="none" stroke="#ffbd9b"></use><use xlink:href="#bbburst-shape-3" width="46.88573922987558" opacity="0.33809232753840013" transform="matrix(0.745507134207108,0.6664976465422102,-0.6664976465422102,0.745507134207108,773.5139832067811,82.32670841718635)" fill="#00a19d"></use><use xlink:href="#bbburst-shape-13" width="8.789700326682048" opacity="0.526519452265271" transform="matrix(0.9987194434524824,-0.05059123708671137,0.05059123708671137,0.9987194434524824,448.72741388906724,389.750817482038)" fill="none" stroke="#ffbd9b"></use><use xlink:href="#bbburst-shape-8" width="12.457030565793524" opacity="0.8229377030563436" transform="matrix(0.9925837861083108,-0.12156244302781677,0.12156244302781677,0.9925837861083108,67.40405539524241,275.6008631875439)" fill="none" stroke="#ff5c58"></use><use xlink:href="#bbburst-shape-12" width="11.69280363371225" opacity="0.8651405977351533" transform="matrix(0.9988814455621144,0.04728485710817501,-0.04728485710817501,0.9988814455621144,141.32095835666263,358.4358784967136)" fill="none" stroke="#ffbd9b"></use><use xlink:href="#bbburst-shape-5" width="29.092859038348386" opacity="0.3908050635645689" transform="matrix(0.9934700085994157,-0.11409356692415575,0.11409356692415575,0.9934700085994157,-11.543787427815424,-202.98598911045676)" fill="#28a745"></use><use xlink:href="#bbburst-shape-9" width="39.67244774293762" opacity="0.3877711624375393" transform="matrix(0.8481954289075468,0.5296834095762701,-0.5296834095762701,0.8481954289075468,501.2555988623971,-80.2458391716724)" fill="none" stroke="#e77717"></use><use xlink:href="#bbburst-shape-6" width="5.146152969832872" opacity="0.9842108109974895" transform="matrix(0.9974164469132142,-0.07183614290188106,0.07183614290188106,0.9974164469132142,-17.153767183195615,394.2070549225718)" fill="#28a745"></use><use xlink:href="#bbburst-shape-5" width="34.59759917833445" opacity="0.23107017657708495" transform="matrix(0.8253208083291838,-0.5646641155048395,0.5646641155048395,0.8253208083291838,521.4304062279629,373.52904294246736)" fill="#ffc107"></use><use xlink:href="#bbburst-shape-1" width="12.03886455625748" opacity="0.8852664943617039" transform="matrix(0.870519052069344,-0.492134717312537,0.492134717312537,0.870519052069344,-159.334327785554,348.2973963178309)" fill="#e77717"></use><use xlink:href="#bbburst-shape-14" width="26.35415397669639" opacity="0.2583660631601198" transform="matrix(0.7278704728111763,-0.6857146453224071,0.6857146453224071,0.7278704728111763,456.9685165129443,483.20205173835416)" fill="none" stroke="#00a19d"></use><use xlink:href="#bbburst-shape-13" width="8.10204655258557" opacity="0.9296964715844842" transform="matrix(0.906194382461742,0.42286137349583264,-0.42286137349583264,0.906194382461742,215.96738020132594,386.89135977501627)" fill="none" stroke="#ffbd9b"></use><use xlink:href="#bbburst-shape-14" width="22.887142817589144" opacity="0.560860100247835" transform="matrix(0.8032810420306299,-0.595600174205973,0.595600174205973,0.8032810420306299,190.9106957564927,458.78343796856245)" fill="none" stroke="#e77717"></use><use xlink:href="#bbburst-shape-5" width="11.022921569470704" opacity="0.805866748427186" transform="matrix(0.7303171863321559,-0.6831081959308372,0.6831081959308372,0.7303171863321559,-84.82569308698183,486.07381433003746)" fill="#e77717"></use><use xlink:href="#bbburst-shape-10" width="34.41385830852278" opacity="0.32288249752481346" transform="matrix(0.9404185826019833,0.3400189546141165,-0.3400189546141165,0.9404185826019833,157.75362652515892,-258.0725542247665)" fill="none" stroke="#1d5595"></use><use xlink:href="#bbburst-shape-11" width="6.5555071861412495" opacity="0.963831852244526" transform="matrix(0.8945063319192973,-0.44705527863596917,0.44705527863596917,0.8945063319192973,-166.2237417967603,410.94111572766553)" fill="none" stroke="#1d5595"></use><use xlink:href="#bbburst-shape-8" width="8.736953229699253" opacity="0.8183754168612275" transform="matrix(0.8198886930743658,-0.5725229523510897,0.5725229523510897,0.8198886930743658,-211.48326681848908,294.1516741781576)" fill="none" stroke="#1d5595"></use><use xlink:href="#bbburst-shape-5" width="7.6742854369393445" opacity="0.9245292477488338" transform="matrix(0.9480701044945806,0.31806143583219093,-0.31806143583219093,0.9480701044945806,197.94831109519808,406.6602722497215)" fill="#28a745"></use><use xlink:href="#bbburst-shape-2" width="16.15196278893889" opacity="0.7148222691156616" transform="matrix(0.9034572880760117,0.4286781177321028,-0.4286781177321028,0.9034572880760117,363.7460290919658,231.45596917272422)" fill="#ffc107"></use><use xlink:href="#bbburst-shape-8" width="14.81883228836992" opacity="0.6913131500985967" transform="matrix(0.9603719087586788,0.2787217194034435,-0.2787217194034435,0.9603719087586788,408.8663936485033,363.0782033471707)" fill="none" stroke="#ffbd9b"></use><use xlink:href="#bbburst-shape-6" width="13.708714051804119" opacity="0.6346175319126283" transform="matrix(0.8796478787435588,-0.47562549282177613,0.47562549282177613,0.8796478787435588,-178.369979924143,86.45780918477755)" fill="#ffc107"></use><use xlink:href="#bbburst-shape-4" width="6.663877436583998" opacity="0.9313483170871607" transform="matrix(0.788844273412924,0.6145931274458217,-0.6145931274458217,0.788844273412924,270.0624578510726,419.23907342372394)" fill="#1d5595"></use><use xlink:href="#bbburst-shape-10" width="23.311136210315052" opacity="0.6678884722555943" transform="matrix(0.7852400577303617,-0.6191914499858814,0.6191914499858814,0.7852400577303617,-24.715633942191204,255.58897586583868)" fill="none" stroke="#ffc107"></use><use xlink:href="#bbburst-shape-10" width="19.87389711778008" opacity="0.7303097709023414" transform="matrix(0.8427693384726782,-0.5382748759976861,0.5382748759976861,0.8427693384726782,37.966763854862364,402.8848805118633)" fill="none" stroke="#ff5c58"></use><use xlink:href="#bbburst-shape-12" width="8.66371573765966" opacity="0.9207090695875089" transform="matrix(0.9822097140761841,-0.18778732005750765,0.18778732005750765,0.9822097140761841,-69.63150491391666,329.2238758791553)" fill="none" stroke="#ffc107"></use><use xlink:href="#bbburst-shape-10" width="16.828185102392325" opacity="0.5770624344530393" transform="matrix(0.9955366969492904,-0.09437523524366387,0.09437523524366387,0.9955366969492904,-23.619529945797538,-19.758866202649415)" fill="none" stroke="#e77717"></use><use xlink:href="#bbburst-shape-3" width="34.482168250909915" opacity="0.30509392712087136" transform="matrix(0.939437318972791,0.3427207663991409,-0.3427207663991409,0.939437318972791,772.4437151601892,176.99766010184527)" fill="#e77717"></use><use xlink:href="#bbburst-shape-5" width="34.14855471135254" opacity="0.48005746280075" transform="matrix(0.9169971617855281,0.3988937267961054,-0.3988937267961054,0.9169971617855281,498.0890113367817,45.745228459064265)" fill="#e77717"></use><use xlink:href="#bbburst-shape-6" width="17.71030019872076" opacity="0.7618559719969019" transform="matrix(0.9812655925452568,-0.19265989952973125,0.19265989952973125,0.9812655925452568,116.57723314243358,283.60148818902235)" fill="#e77717"></use><use xlink:href="#bbburst-shape-2" width="36.10093900436547" opacity="0.4624923224356833" transform="matrix(0.9238702986806255,-0.38270572404364644,0.38270572404364644,0.9238702986806255,57.14553478276173,-49.8934488534577)" fill="#00a19d"></use><use xlink:href="#bbburst-shape-11" width="20.26377004127677" opacity="0.7230688642757097" transform="matrix(0.9980006994014419,-0.0632028796356064,0.0632028796356064,0.9980006994014419,94.54299499168783,156.63244319490997)" fill="none" stroke="#1d5595"></use><use xlink:href="#bbburst-shape-10" width="24.324161905382187" opacity="0.6106723995057495" transform="matrix(0.7769453056315783,-0.6295680996183443,0.6295680996183443,0.7769453056315783,126.80162814466627,465.71264082015085)" fill="none" stroke="#e77717"></use><use xlink:href="#bbburst-shape-2" width="13.657837898621914" opacity="0.7948636856275043" transform="matrix(0.9962614570350391,-0.08638928884081051,0.08638928884081051,0.9962614570350391,117.9850865869301,272.90037633191895)" fill="#ffc107"></use><use xlink:href="#bbburst-shape-14" width="9.042917715758232" opacity="0.8947195784930053" transform="matrix(0.7934731539642272,0.6086052529662077,-0.6086052529662077,0.7934731539642272,252.51235053743906,375.3528209897721)" fill="none" stroke="#ffc107"></use><use xlink:href="#bbburst-shape-13" width="46.554725075153925" opacity="0.19061682477177755" transform="matrix(0.9971938739554754,-0.07486239206485007,0.07486239206485007,0.9971938739554754,251.34726156845102,-347.0538044729215)" fill="none" stroke="#1d5595"></use><use xlink:href="#bbburst-shape-13" width="19.690466978008647" opacity="0.5411243265339629" transform="matrix(0.9277440981238358,0.3732169454839777,-0.3732169454839777,0.9277440981238358,265.67126638832235,-16.1472053875068)" fill="none" stroke="#ff5c58"></use><use xlink:href="#bbburst-shape-13" width="30.465880058508997" opacity="0.5337501498038568" transform="matrix(0.9967998595898767,0.07993772527162671,-0.07993772527162671,0.9967998595898767,367.6973553746129,93.05491950686184)" fill="none" stroke="#1d5595"></use><use xlink:href="#bbburst-shape-6" width="25.717364574117287" opacity="0.4902740326531413" transform="matrix(0.9980749156083821,0.06201985837875614,-0.06201985837875614,0.9980749156083821,520.8289106162988,370.18658161959917)" fill="#28a745"></use><use xlink:href="#bbburst-shape-8" width="25.452380402071157" opacity="0.6447280598303524" transform="matrix(0.8622481937890351,-0.506485984315012,0.506485984315012,0.8622481937890351,118.43656663248524,335.0891525149723)" fill="none" stroke="#e77717"></use><use xlink:href="#bbburst-shape-5" width="22.984815605371413" opacity="0.5211963857670527" transform="matrix(0.7637709397825542,0.6454873752008431,-0.6454873752008431,0.7637709397825542,721.7069750826151,408.36225860693605)" fill="#ffc107"></use><use xlink:href="#bbburst-shape-12" width="32.09899422129119" opacity="0.22030628159186616" transform="matrix(0.8196499981271782,-0.5728646267401372,0.5728646267401372,0.8196499981271782,-64.0894668568697,-277.75966069165537)" fill="none" stroke="#00a19d"></use><use xlink:href="#bbburst-shape-3" width="12.12270795528444" opacity="0.7600512486993205" transform="matrix(0.8542297098384244,0.519895761503555,-0.519895761503555,0.8542297098384244,220.35781818005577,215.83161875463418)" fill="#ffbd9b"></use><use xlink:href="#bbburst-shape-12" width="23.161382489659673" opacity="0.6812603485470325" transform="matrix(0.731176059516123,-0.6821888081685854,0.6821888081685854,0.731176059516123,1.1714552490283836,367.87174048097796)" fill="none" stroke="#ffbd9b"></use><use xlink:href="#bbburst-shape-4" width="8.151682130940754" opacity="0.8827146231517626" transform="matrix(0.9215002197968047,-0.3883778378260539,0.3883778378260539,0.9215002197968047,-42.676432096901706,418.8318838520159)" fill="#1d5595"></use><use xlink:href="#bbburst-shape-13" width="36.117170218471585" opacity="0.09226410211771408" transform="matrix(0.9552640701489675,0.29575421600110524,-0.29575421600110524,0.9552640701489675,850.2496373675854,-99.97535767753908)" fill="none" stroke="#28a745"></use><use xlink:href="#bbburst-shape-4" width="13.208724462234827" opacity="0.8546287814040654" transform="matrix(0.8244396639625158,0.5659498568648764,-0.5659498568648764,0.8244396639625158,278.401455516469,332.96867271305103)" fill="#00a19d"></use><use xlink:href="#bbburst-shape-10" width="2.965375856414873" opacity="0.9917920392375418" transform="matrix(0.8628241144338697,-0.5055042507748164,0.5055042507748164,0.8628241144338697,-199.39496993914634,448.5012249071168)" fill="none" stroke="#ff5c58"></use><use xlink:href="#bbburst-shape-14" width="21.169074240692915" opacity="0.6915510909861633" transform="matrix(0.9312393287423097,0.36440816758625527,-0.36440816758625527,0.9312393287423097,429.0641913259282,327.79263312685737)" fill="none" stroke="#00a19d"></use><use xlink:href="#bbburst-shape-4" width="12.130770210214637" opacity="0.7090664921059383" transform="matrix(0.7799391153633415,-0.6258553956995564,0.6258553956995564,0.7799391153633415,35.368969491072846,474.80313134100606)" fill="#ff5c58"></use><use xlink:href="#bbburst-shape-7" width="60.71770837543518" opacity="-0.02488213992905486" transform="matrix(0.9952410466364593,0.09744362005778093,-0.09744362005778093,0.9952410466364593,744.9084644919542,-313.9473510268532)" fill="#1d5595"></use><use xlink:href="#bbburst-shape-10" width="19.939480960162484" opacity="0.498608013932509" transform="matrix(0.9378192284937185,-0.347124033549172,0.347124033549172,0.9378192284937185,-108.32752674462643,-71.4710673633765)" fill="none" stroke="#e77717"></use><use xlink:href="#bbburst-shape-13" width="14.1538115445551" opacity="0.6657782059970527" transform="matrix(0.9098145324031677,-0.4150150800007215,0.4150150800007215,0.9098145324031677,-54.67780663235004,126.22507142085601)" fill="none" stroke="#1d5595"></use><use xlink:href="#bbburst-shape-1" width="15.303752684577354" opacity="0.770792593471225" transform="matrix(0.8098737880047213,0.5866041659440238,-0.5866041659440238,0.8098737880047213,452.4656098334508,423.1480939846765)" fill="#00a19d"></use><use xlink:href="#bbburst-shape-2" width="16.06206051927776" opacity="0.7154628376563616" transform="matrix(0.748057859376683,0.6636335125841482,-0.6636335125841482,0.748057859376683,352.17581646562655,226.45224764093643)" fill="#ffc107"></use><use xlink:href="#bbburst-shape-13" width="30.05267461970736" opacity="0.5554812510938634" transform="matrix(0.9097821276367756,0.4150861118282588,-0.4150861118282588,0.9097821276367756,544.3123637031247,220.15205577681417)" fill="none" stroke="#ffbd9b"></use><use xlink:href="#bbburst-shape-3" width="52.161117153834255" opacity="0.3116521756051971" transform="matrix(0.9791652195932371,0.2030651933220652,-0.2030651933220652,0.9791652195932371,468.2428312393534,-147.87560613231665)" fill="#ff5c58"></use><use xlink:href="#bbburst-shape-10" width="25.852016269619728" opacity="0.3419407673002468" transform="matrix(0.9993793349183648,0.03522704838794601,-0.03522704838794601,0.9993793349183648,657.8294376613593,356.8502996811568)" fill="none" stroke="#00a19d"></use><use xlink:href="#bbburst-shape-9" width="15.390299592555882" opacity="0.6853964287972079" transform="matrix(0.9989277049030338,-0.04629730421047622,0.04629730421047622,0.9989277049030338,43.50263876672052,93.89910411607326)" fill="none" stroke="#e77717"></use><use xlink:href="#bbburst-shape-14" width="7.676897117354432" opacity="0.9048887896589084" transform="matrix(0.7763298825085031,-0.6303268307190595,0.6303268307190595,0.7763298825085031,-161.07901217910708,477.56288880873194)" fill="none" stroke="#ffbd9b"></use><use xlink:href="#bbburst-shape-9" width="18.178545656373572" opacity="0.607940596870207" transform="matrix(0.8296826976727427,-0.5582352740399699,0.5582352740399699,0.8296826976727427,-99.23036391091844,103.81243257843568)" fill="none" stroke="#ffbd9b"></use><use xlink:href="#bbburst-shape-13" width="33.878134229311215" opacity="0.2382553832292288" transform="matrix(0.9883797101045622,-0.1520050941699707,0.1520050941699707,0.9883797101045622,-21.668787374923333,-352.4696270673137)" fill="none" stroke="#ff5c58"></use><use xlink:href="#bbburst-shape-2" width="27.57365123256752" opacity="0.4603048691603405" transform="matrix(0.7268945557280324,0.6867490843480946,-0.6867490843480946,0.7268945557280324,796.5001487375162,407.99122606159773)" fill="#ffbd9b"></use><use xlink:href="#bbburst-shape-4" width="11.378680383693133" opacity="0.6087395662537802" transform="matrix(0.9910862335941507,-0.13322191103628755,0.13322191103628755,0.9910862335941507,-25.89260580572673,14.470230841105888)" fill="#ff5c58"></use><use xlink:href="#bbburst-shape-5" width="15.357844006277084" opacity="0.7289792470233963" transform="matrix(0.9999999886221755,0.00015084975555481762,-0.00015084975555481762,0.9999999886221755,9.029103079125992,129.48987431483698)" fill="#ffc107"></use><use xlink:href="#bbburst-shape-8" width="12.50719924665432" opacity="0.6469691875581727" transform="matrix(0.9684271927864705,0.24929655487334015,-0.24929655487334015,0.9684271927864705,187.10447628484724,70.63019306119236)" fill="none" stroke="#e77717"></use><use xlink:href="#bbburst-shape-10" width="19.607103460270586" opacity="0.7266555362154368" transform="matrix(0.9710112147106889,-0.2390339325411194,0.2390339325411194,0.9710112147106889,141.0693408092877,295.1885795742484)" fill="none" stroke="#e77717"></use><use xlink:href="#bbburst-shape-6" width="12.840684208241447" opacity="0.7608713817739124" transform="matrix(0.9822783658925432,0.1874278845302238,-0.1874278845302238,0.9822783658925432,291.4483018512218,318.9952809921349)" fill="#ffbd9b"></use><use xlink:href="#bbburst-shape-8" width="22.633950427580462" opacity="0.5777877197339247" transform="matrix(0.9400191497590622,-0.34112167636526686,0.34112167636526686,0.9400191497590622,82.03171689355872,73.21513458206402)" fill="none" stroke="#ff5c58"></use></svg>