<?xml version="1.0" standalone="no"?><!DOCTYPE svg PUBLIC "-//W3C//DTD SVG 1.1//EN" "http://www.w3.org/Graphics/SVG/1.1/DTD/svg11.dtd"><svg class="icon" width="48px" height="48.00px" viewBox="0 0 1024 1024" version="1.1" xmlns="http://www.w3.org/2000/svg"><path fill="#333333" d="M753.066667 270.933333C691.2 209.066667 606.293333 170.666667 512 170.666667 323.413333 170.666667 170.666667 323.413333 170.666667 512 170.666667 700.586667 323.413333 853.333333 512 853.333333 671.146667 853.333333 803.84 744.533333 841.813333 597.333333L753.066667 597.333333C718.08 696.746667 623.36 768 512 768 370.773333 768 256 653.226667 256 512 256 370.773333 370.773333 256 512 256 582.826667 256 645.973333 285.44 692.053333 331.946667L554.666667 469.333333 853.333333 469.333333 853.333333 170.666667 753.066667 270.933333Z" /></svg>