<svg xmlns="http://www.w3.org/2000/svg" width="2000" height="500" viewBox="0 0 529.167 132.292"><g transform="matrix(.26511 0 0 .26618 0 -.532)"><path d="M119 249l70-126 60 126zM250 250l131-1-70 126z" fill="#fff"/><path d="M190 124l211 1 98 204-129 170-60-125 71-123-132-2-59-125z" fill="#1d5595"/><path d="M190 125L130 2 0 170l100 206 210-1-61-126H119l71-124z" fill="#e77717"/></g><text style="line-height:1.25;-inkscape-font-specification:'Arial, Bold';font-variant-ligatures:normal;font-variant-caps:normal;font-variant-numeric:normal;font-feature-settings:bold;text-align:start" x="143.189" y="222.363" transform="matrix(.958 0 0 1.04383 0 -164.708)" font-weight="700" font-size="66.407" font-family="Arial" letter-spacing="0" word-spacing="0" writing-mode="lr" fill="#ececec" stroke-width="1.617"><tspan x="143.189" y="222.363" style="-inkscape-font-specification:'Arial, Bold';font-variant-ligatures:normal;font-variant-caps:normal;font-variant-numeric:normal;font-feature-settings:bold;font-style:italic;text-align:start">PHPOK.Com</tspan></text><text style="line-height:1.25" x="145.809" y="258.627" transform="matrix(.9358 0 0 1.06861 0 -164.708)" font-weight="400" font-size="37.294" font-family="sans-serif" letter-spacing="0" word-spacing="0" fill="#1d5595" stroke-width=".932"><tspan x="145.809" y="258.627">深圳市锟铻科技有限公司</tspan></text></svg>