<svg width="500" height="500" xmlns="http://www.w3.org/2000/svg">
<g>
<title>Logo</title>
<path id="svg_16" d="m119,249l70,-126l60,126l-130,0z" stroke-linecap="null" stroke-linejoin="null" stroke-dasharray="null" stroke-width="0" stroke="#000000" fill="#ffffff"/>
<path id="svg_17" d="m250,250l131,-1l-70,126l-61,-125z" stroke-linecap="null" stroke-linejoin="null" stroke-dasharray="null" stroke-width="0" stroke="#000000" fill="#ffffff"/>
<path id="svg_18" d="m190,124c0,0 211,1 211,1c0,0 98,204 98,204c0,0 -129,170 -129,170c0,0 -60,-125 -60,-125c0,0 71,-123 71,-123c0,0 -132,-2 -132,-2c0,0 -59,-125 -59,-125z" stroke-linecap="null" stroke-linejoin="null" stroke-dasharray="null" stroke-width="0" stroke="#000000" fill="#1D5595"/>
<path id="svg_19" d="m190,125c0,0 -60,-123 -60,-123c0,0 -130,168 -130,168c0,0 100,206 100,206c0,0 210,-1 210,-1c0,0 -61,-126 -61,-126c0,0 -130,0 -130,0c0,0 71,-124 71,-124z" stroke-linecap="null" stroke-linejoin="null" stroke-dasharray="null" stroke-width="0" stroke="#000000" fill="#E77717"/>
</g>
</svg>